<svg width="198" height="198" xmlns="http://www.w3.org/2000/svg" xmlns:xlink="http://www.w3.org/1999/xlink" xml:space="preserve" overflow="hidden"><g transform="translate(-55 -355)"><path d="M121 482.875C121 491.988 113.613 499.375 104.5 499.375 95.3873 499.375 88 491.988 88 482.875 88 473.762 95.3873 466.375 104.5 466.375 113.613 466.375 121 473.762 121 482.875Z"/><path d="M220 482.875C220 491.988 212.613 499.375 203.5 499.375 194.387 499.375 187 491.988 187 482.875 187 473.762 194.387 466.375 203.5 466.375 212.613 466.375 220 473.762 220 482.875Z"/><path d="M135.438 441.625 135.438 416.875 163.694 416.875C165.962 416.875 168.025 417.7 169.469 419.35L191.744 441.625 135.438 441.625ZM127.188 441.625 75.0062 441.625 97.2812 419.35C98.9312 417.7 100.994 416.875 103.056 416.875L127.188 416.875 127.188 441.625ZM224.125 441.625 207.006 441.625C204.738 441.625 202.675 440.8 201.231 439.15L175.244 413.369C172.15 410.275 168.025 408.625 163.487 408.625L103.056 408.625C98.725 408.625 94.3938 410.275 91.3 413.369L65.725 439.15C64.075 440.8 63.25 442.862 63.25 445.131L63.25 466.375C63.25 475.45 70.675 482.875 79.75 482.875L81.8125 482.875C81.8125 470.294 91.9187 460.188 104.5 460.188 117.081 460.188 127.188 470.294 127.188 482.875L180.812 482.875C180.812 470.294 190.919 460.188 203.5 460.188 216.081 460.188 226.188 470.294 226.188 482.875L236.5 482.875C241.037 482.875 244.75 479.163 244.75 474.625L244.75 462.25C244.75 450.906 235.469 441.625 224.125 441.625Z"/></g></svg>