<svg width="163" height="164" xmlns="http://www.w3.org/2000/svg" xmlns:xlink="http://www.w3.org/1999/xlink" xml:space="preserve" overflow="hidden"><g transform="translate(-667 -337)"><path d="M142.625 49.2396 142.625 43.6025C142.627 42.8428 142.471 42.0912 142.167 41.3952L132.183 18.6771 30.8172 18.6771 20.8334 41.3952C20.529 42.0912 20.3728 42.8428 20.375 43.6025L20.375 49.2396C20.375 52.9905 23.4158 56.0312 27.1667 56.0312L27.1667 96.7812 20.375 96.7812 20.375 106.969 27.1667 106.969 27.1667 142.625 135.833 142.625 135.833 106.969 142.625 106.969 142.625 96.7812 135.833 96.7812 135.833 56.0312C139.584 56.0312 142.625 52.9905 142.625 49.2396ZM122.59 28.8646 129.042 42.4479 129.042 49.2396C129.042 52.9905 126.001 56.0312 122.25 56.0312 118.499 56.0312 115.458 52.9905 115.458 49.2396L115.458 42.4479 109.006 28.8646ZM97.8 28.8646 101.875 42.4479 101.875 49.2396C101.875 52.9905 98.8342 56.0312 95.0833 56.0312 91.3325 56.0312 88.2917 52.9905 88.2917 49.2396L88.2917 42.4479 85.9146 28.8646ZM61.125 42.4479 65.2 28.8646 77.0854 28.8646 74.7083 42.4479 74.7083 49.2396C74.7083 52.9905 71.6675 56.0312 67.9167 56.0312 64.1658 56.0312 61.125 52.9905 61.125 49.2396ZM33.9583 42.4479 40.4104 28.8646 53.9937 28.8646 47.5417 42.4479 47.5417 49.2396C47.5417 52.9905 44.5009 56.0312 40.75 56.0312 36.9991 56.0312 33.9583 52.9905 33.9583 49.2396ZM37.3542 96.7812 37.3542 67.9167 125.646 67.9167 125.646 96.7812Z" transform="matrix(1 0 0 1.00614 667 337)"/></g></svg>