<svg width="163" height="163" xmlns="http://www.w3.org/2000/svg" xmlns:xlink="http://www.w3.org/1999/xlink" xml:space="preserve" overflow="hidden"><g transform="translate(-818 -328)"><path d="M966.737 402.708C965.895 402.708 965.137 402.198 964.819 401.418L951.677 370.448 923.678 358.902 895.714 370.448 882.86 401.129C882.392 402.194 881.149 402.676 880.084 402.207 879.02 401.739 878.537 400.496 879.006 399.431L892.589 367.171 923.746 354.318 954.852 367.205 968.673 399.771C969.12 400.84 968.619 402.069 967.552 402.522 967.294 402.633 967.018 402.696 966.737 402.708Z"/><path d="M901.198 431.573 918.398 420.469 901.198 409.5 901.198 431.573Z"/><path d="M907.226 407.802 923.271 417.99 940.437 407.802 907.226 407.802Z"/><path d="M945.344 431.573 945.344 409.5 927.855 420.469 945.344 431.573Z"/><path d="M958.927 436.344 958.927 401.095 948.96 372.604 923.695 361.958 898.464 372.655 887.615 401.01 887.615 437.804C890.896 436.18 894.303 434.823 897.802 433.746L897.802 406.104C897.802 404.95 900.043 404.406 901.198 404.406L945.344 404.406C946.498 404.406 948.74 404.95 948.74 406.104L948.74 432.863C952.215 433.775 955.62 434.938 958.927 436.344ZM938.552 393.692C938.552 394.921 937.556 395.917 936.328 395.917L910.214 395.917C908.985 395.917 907.99 394.921 907.99 393.692L907.99 377.341C907.999 376.351 908.799 375.551 909.789 375.542L936.107 375.542C937.448 375.532 938.543 376.612 938.552 377.953 938.552 377.964 938.552 377.975 938.552 377.987Z"/><path d="M911.385 378.938 935.156 378.938 935.156 392.521 911.385 392.521Z"/><path d="M826.49 365.354 834.979 365.354 834.979 368.75 826.49 368.75Z"/><path d="M838.103 359.14 832.195 353.112 834.606 350.65 840.497 356.678 838.103 359.14Z"/><path d="M858.75 367.256C858.75 372.882 854.189 377.443 848.562 377.443 842.936 377.443 838.375 372.882 838.375 367.256 838.375 361.629 842.936 357.068 848.562 357.068 854.189 357.068 858.75 361.629 858.75 367.256Z"/><path d="M846.865 344.979 850.26 344.979 850.26 353.469 846.865 353.469Z"/><path d="M862.146 365.354 870.635 365.354 870.635 368.75 862.146 368.75Z"/><path d="M859.022 359.14 864.93 353.112 862.519 350.65 856.628 356.678 859.022 359.14Z"/><path d="M838.103 375.151 832.195 381.196 834.606 383.641 840.497 377.613 838.103 375.151Z"/><path d="M846.865 380.839 850.26 380.839 850.26 389.329 846.865 389.329Z"/><path d="M859.022 375.151 864.93 381.196 862.519 383.641 856.628 377.613 859.022 375.151Z"/><path d="M924.969 429.875C928.651 429.877 932.33 430.087 935.988 430.503L923.271 423.083 911.08 430.843C915.681 430.198 920.322 429.875 924.969 429.875Z"/><path d="M839.377 451.948C866.543 450.25 880.772 441.76 881.825 441.268 883.115 440.371 884.453 439.544 885.832 438.789 864.862 417.361 826.49 419.925 826.49 419.925L826.49 451.948Z"/><path d="M972.51 450.335 966.5 446.447C956.924 439.214 941.354 434.969 924.969 434.969 909.042 434.969 894.304 438.857 884.626 445.581 884.456 445.7 869.532 455.208 839.615 457.11L826.49 457.11 826.49 472.391 972.51 472.391Z"/></g></svg>