<svg width="175" height="176" xmlns="http://www.w3.org/2000/svg" xmlns:xlink="http://www.w3.org/1999/xlink" xml:space="preserve" overflow="hidden"><g transform="translate(-268 -354)"><path d="M131.25 63.4375 131.25 32.8125 116.667 32.8125 116.667 49.5833 87.5 21.875 87.5 21.875 10.9375 94.7917 19.1406 101.719 87.5 36.8229 87.5 36.8229 155.859 101.719 164.062 94.7917Z" transform="matrix(1 0 0 1.00571 268 354)"/><path d="M32.8125 98.9844 32.8125 153.125 76.5625 153.125 76.5625 107.552 98.4375 107.552 98.4375 153.125 142.188 153.125 142.188 98.9844 87.5 47.0312 32.8125 98.9844ZM65.625 129.427 43.75 129.427 43.75 107.552 65.625 107.552 65.625 129.427ZM109.375 107.552 131.25 107.552 131.25 129.427 109.375 129.427 109.375 107.552Z" transform="matrix(1 0 0 1.00571 268 354)"/></g></svg>